<svg id="UK_RAS_STEPS_logo" data-name="UK RAS STEPS logo" xmlns="http://www.w3.org/2000/svg" width="276.672" height="120" viewBox="0 0 276.672 120">
  <g id="Group_521" data-name="Group 521">
    <g id="Group_518" data-name="Group 518" transform="translate(66.5 63.066)">
      <path id="Path_4" data-name="Path 4" d="M144,126.657l-24.166-6.039a4.3,4.3,0,0,1-3.1-4.239v-1.005a4.477,4.477,0,0,1,4.475-4.474H149.4l-1.094-3.64H121.208a8.116,8.116,0,0,0-8.108,8.108v1.005a8,8,0,0,0,5.962,7.844l24.166,6.044a4.226,4.226,0,0,1,3.093,4.239v1.005a4.477,4.477,0,0,1-4.475,4.475H113.659l1.094,3.64h27.094a8.116,8.116,0,0,0,8.108-8.108v-1.005a8,8,0,0,0-5.962-7.844Z" transform="translate(-113.1 -107.26)" fill="#6155a3"/>
      <path id="Path_5" data-name="Path 5" d="M178.17,107.26v3.64h16.357v32.715h3.64V110.9h16.357v-3.64Z" transform="translate(-139.91 -107.26)" fill="#6155a3"/>
      <path id="Path_6" data-name="Path 6" d="M247.73,127.257h30.81l1.094-3.64h-31.9V110.9h31.71v-3.64H244.09v36.355h35.349v-3.634H247.73Z" transform="translate(-167.071 -107.26)" fill="#6155a3"/>
      <path id="Path_7" data-name="Path 7" d="M337.406,107.26H309.16v36.355h3.64v-15.1h24.607a8.118,8.118,0,0,0,8.108-8.114v-5.033A8.116,8.116,0,0,0,337.406,107.26Zm0,17.616H312.8V110.894h24.607a4.477,4.477,0,0,1,4.474,4.475V120.4A4.477,4.477,0,0,1,337.406,124.876Z" transform="translate(-193.881 -107.26)" fill="#6155a3"/>
      <path id="Path_8" data-name="Path 8" d="M405.978,126.657l-24.166-6.039a4.3,4.3,0,0,1-3.1-4.239v-1.005a4.477,4.477,0,0,1,4.475-4.474h28.188l-1.088-3.64H383.194a8.122,8.122,0,0,0-8.114,8.108v1.005a8,8,0,0,0,5.962,7.844l24.166,6.044A4.226,4.226,0,0,1,408.3,134.5v1.005a4.477,4.477,0,0,1-4.474,4.475H375.639l1.094,3.64h27.094a8.116,8.116,0,0,0,8.108-8.108v-1.005a8,8,0,0,0-5.962-7.844Z" transform="translate(-221.042 -107.26)" fill="#6155a3"/>
    </g>
    <g id="Group_519" data-name="Group 519" transform="translate(143.507 30.228)">
      <path id="Path_9" data-name="Path 9" d="M261.3,51.41v14.8a2.429,2.429,0,0,1-2.428,2.428H248.268a2.434,2.434,0,0,1-2.434-2.428V51.41H244.07v14.8a4.2,4.2,0,0,0,4.2,4.2h10.607a4.2,4.2,0,0,0,4.2-4.2V51.41h-1.764Z" transform="translate(-244.07 -51.41)" fill="#a299ca"/>
      <path id="Path_10" data-name="Path 10" d="M299.138,51.41h-1.764v2.869c0,2.587-1.735,5.745-2.593,5.745H281.9V51.41H280.14v19H281.9V61.794h12.877c.858,0,2.593,3.157,2.593,5.745v2.869h1.764V67.538a9.59,9.59,0,0,0-2.558-6.626,9.6,9.6,0,0,0,2.558-6.626V51.416Z" transform="translate(-258.932 -51.41)" fill="#a299ca"/>
      <path id="Path_11" data-name="Path 11" d="M350.537,57.6V55.608a4.2,4.2,0,0,0-4.2-4.2h-14.8v19H333.3V61.794h12.771c.87,0,2.7,3.216,2.7,5.745v2.869h1.764V67.538a9.619,9.619,0,0,0-2.258-6.209A4.2,4.2,0,0,0,350.537,57.6ZM333.31,53.174h13.035a2.429,2.429,0,0,1,2.428,2.428V57.59a2.429,2.429,0,0,1-2.428,2.428H333.31v-6.85Z" transform="translate(-280.11 -51.41)" fill="#a299ca"/>
      <path id="Path_12" data-name="Path 12" d="M381.965,51.41H371.358a4.2,4.2,0,0,0-4.2,4.2v14.8h1.764V61.794h15.47v8.614h1.764v-14.8a4.2,4.2,0,0,0-4.2-4.2Zm-10.607,1.764h10.607a2.429,2.429,0,0,1,2.428,2.428v4.422h-15.47V55.6a2.43,2.43,0,0,1,2.434-2.428Z" transform="translate(-294.786 -51.41)" fill="#a299ca"/>
      <path id="Path_13" data-name="Path 13" d="M418.507,61.627l-12.73-3.181a2.342,2.342,0,0,1-1.687-2.3v-.529a2.429,2.429,0,0,1,2.428-2.428h14.746l-.529-1.764H406.518a4.2,4.2,0,0,0-4.2,4.2v.529A4.137,4.137,0,0,0,405.4,60.2l12.73,3.181a2.3,2.3,0,0,1,1.688,2.3v.529a2.43,2.43,0,0,1-2.434,2.428H402.638l.529,1.764h14.217a4.2,4.2,0,0,0,4.2-4.2v-.529a4.137,4.137,0,0,0-3.081-4.057Z" transform="translate(-309.273 -51.414)" fill="#a299ca"/>
    </g>
    <g id="Group_520" data-name="Group 520" transform="translate(19.088 19.174)">
      <path id="Path_14" data-name="Path 14" d="M53.379,89.316a11.786,11.786,0,0,1-2.793-8.6A8.22,8.22,0,0,0,45,84.871a12.54,12.54,0,0,0-1.393,8.379l3.216,19.4a13.579,13.579,0,0,0,1.035,3.4,21.519,21.519,0,0,1,16.416-.2,13.1,13.1,0,0,0,.417-6.162L61.969,93.262a11.878,11.878,0,0,1-8.59-3.939Z" transform="translate(-36.976 -52.432)" fill="none"/>
      <path id="Path_15" data-name="Path 15" d="M59.586,80.64a9.181,9.181,0,0,0,8.637,10.231l-.106-.623C67.259,85.073,63.66,81.2,59.586,80.64Z" transform="translate(-43.624 -52.4)" fill="none"/>
      <path id="Path_16" data-name="Path 16" d="M110.072,48.74a5.782,5.782,0,0,0-2.187-1.57,9.2,9.2,0,0,0-1.235,4.574,9.822,9.822,0,0,0,3.152,7.044C112.012,54.449,112.112,51.074,110.072,48.74Z" transform="translate(-63.03 -38.609)" fill="none"/>
      <path id="Path_17" data-name="Path 17" d="M85.632,51.4a11.159,11.159,0,0,1,1.223-5.057c-2.323-.194-5.251.541-8.755,2.2a64.818,64.818,0,0,0-13.406,9.049,13.994,13.994,0,0,0-4.075,6.021c5.239.835,9.778,5.627,10.836,12.006l.159.964a13.851,13.851,0,0,0,6.8-3.269A64.84,64.84,0,0,0,89.2,61.25c.218-.329.417-.659.617-.982a11.948,11.948,0,0,1-4.186-8.878Z" transform="translate(-44.065 -38.254)" fill="none"/>
      <path id="Path_18" data-name="Path 18" d="M184.2,52.877a12.973,12.973,0,0,1-3.487,7.009,11.166,11.166,0,0,0,1.635,2.064,11.093,11.093,0,0,0,17.116-1.882l-9.108.065a2.967,2.967,0,0,1-2.029-.823,2.854,2.854,0,0,1-.853-2.017l-.047-6.456a2.857,2.857,0,0,1,2.84-2.875l9.108-.065a11,11,0,0,0-9.231-4.957h-.082a11.046,11.046,0,0,0-6.909,2.475,12.988,12.988,0,0,1,1.035,7.467Z" transform="translate(-93.545 -36.866)" fill="none"/>
      <path id="Path_19" data-name="Path 19" d="M129.717,46.007a13.021,13.021,0,0,1,2.828-6.28A15.485,15.485,0,0,0,122.332,36.1a15.1,15.1,0,0,0-11.172,4.569,8.089,8.089,0,0,1,2.54,1.97c3.187,3.651,2.258,8.461-.194,13.082a15.929,15.929,0,0,0,8.826,2.564,15.757,15.757,0,0,0,9.431-2.993,13.017,13.017,0,0,1-2.046-9.272Z" transform="translate(-64.888 -34.048)" fill="none"/>
      <path id="Path_20" data-name="Path 20" d="M180.522,49.6a11.028,11.028,0,0,0-2.652,7.267,11.216,11.216,0,0,0,.753,3.934,11.067,11.067,0,0,0,1.9-11.2Z" transform="translate(-92.374 -39.61)" fill="none"/>
      <path id="Path_21" data-name="Path 21" d="M148.127,44.63a11.1,11.1,0,0,0-.664,12.894A9.756,9.756,0,0,0,150.4,50.7a9.524,9.524,0,0,0-2.27-6.074Z" transform="translate(-79.125 -37.563)" fill="none"/>
      <path id="Path_22" data-name="Path 22" d="M168.557,42.861a11.132,11.132,0,0,0-7.849-5.315,10.88,10.88,0,0,0-1.735-.135,11.141,11.141,0,0,0-7.314,2.752,11.6,11.6,0,0,1,2.9,7.561,11.823,11.823,0,0,1-3.734,8.449,11.11,11.11,0,0,0,15.317.935,12.831,12.831,0,0,1,2.417-14.253Z" transform="translate(-81.233 -34.588)" fill="none"/>
      <path id="Path_23" data-name="Path 23" d="M56.02,152.876a10.428,10.428,0,0,1-1.705.141,11.37,11.37,0,0,1-7.45-2.928,14.235,14.235,0,0,1-1.834-1.929,15.059,15.059,0,0,0-6.579,8.108.485.485,0,0,0,.065.447.38.38,0,0,0,.329.171H69.614a.369.369,0,0,0,.329-.171.485.485,0,0,0,.065-.447,15.049,15.049,0,0,0-6.738-8.208A10.93,10.93,0,0,1,56,152.876Z" transform="translate(-34.919 -80.178)" fill="none"/>
      <path id="Path_24" data-name="Path 24" d="M54.27,145.073a11.238,11.238,0,0,0,1.052,1.064,8.212,8.212,0,0,0,6.75,2.111,7.941,7.941,0,0,0,5.068-3.222,17.774,17.774,0,0,0-6.368-1.176A18.07,18.07,0,0,0,54.27,145.073Z" transform="translate(-41.448 -78.444)" fill="none"/>
      <path id="Path_25" data-name="Path 25" d="M144.5,48.849a11.109,11.109,0,0,1,2.281-5.192,11.9,11.9,0,0,0-1.341-1.388,13.031,13.031,0,0,0-.782,15.552,13.247,13.247,0,0,0,1.458-1.276,11.114,11.114,0,0,1-1.617-7.7Z" transform="translate(-77.78 -36.59)" fill="#e7347c"/>
      <path id="Path_26" data-name="Path 26" d="M156.223,72.752A11.094,11.094,0,0,1,149.8,69.33a14.906,14.906,0,0,1-1.452,1.252,13.014,13.014,0,0,0,7.573,4.057,13.289,13.289,0,0,0,2.034.159,13.064,13.064,0,0,0,8.091-2.834,12.562,12.562,0,0,1-.935-1.7,11.121,11.121,0,0,1-8.9,2.487Z" transform="translate(-80.211 -47.74)" fill="#e7347c"/>
      <path id="Path_27" data-name="Path 27" d="M151.286,38.832A11.152,11.152,0,0,1,158.6,36.08a11.611,11.611,0,0,1,1.735.135,11.132,11.132,0,0,1,7.849,5.315c.041-.041.076-.088.118-.135a13.017,13.017,0,0,1,1.329-1.158,13.052,13.052,0,0,0-19.691-2.775,14.018,14.018,0,0,1,1.341,1.37Z" transform="translate(-80.867 -33.252)" fill="#e7347c"/>
      <path id="Path_28" data-name="Path 28" d="M181.049,48.586a11.067,11.067,0,0,1-1.9,11.2,10.69,10.69,0,0,0,.917,1.834,13.014,13.014,0,0,0,2.452-14.476,12.234,12.234,0,0,0-.923.829c-.194.194-.37.406-.547.611Z" transform="translate(-92.902 -38.597)" fill="#e7347c"/>
      <path id="Path_29" data-name="Path 29" d="M120.865,34.662a15.473,15.473,0,0,1,10.213,3.628,13.4,13.4,0,0,1,1.417-1.47,17.509,17.509,0,0,0-11.636-4.21A16.937,16.937,0,0,0,107.6,38.531a8.311,8.311,0,0,1,2.087.7,15.12,15.12,0,0,1,11.172-4.569Z" transform="translate(-63.421 -32.61)" fill="#d51b61"/>
      <path id="Path_30" data-name="Path 30" d="M123.263,71.723a15.944,15.944,0,0,1-8.826-2.564c-.318.594-.659,1.188-1.017,1.776a17.976,17.976,0,0,0,9.843,2.84,17.76,17.76,0,0,0,10.7-3.44,13.189,13.189,0,0,1-1.264-1.605A15.757,15.757,0,0,1,123.263,71.723Z" transform="translate(-65.819 -47.492)" fill="#d51b61"/>
      <path id="Path_31" data-name="Path 31" d="M153.676,49.661a11.584,11.584,0,0,0-2.9-7.561,10.952,10.952,0,0,0-1.417,1.488,9.523,9.523,0,0,1,2.27,6.074,9.756,9.756,0,0,1-2.934,6.821,11.3,11.3,0,0,0,1.258,1.635,11.823,11.823,0,0,0,3.734-8.449Z" transform="translate(-80.352 -36.52)" fill="#d51b61"/>
      <path id="Path_32" data-name="Path 32" d="M106.453,46.846a6.794,6.794,0,0,0-2.07-.476,11.141,11.141,0,0,0-1.223,5.057,11.948,11.948,0,0,0,4.186,8.878q.573-.944,1.023-1.834a9.812,9.812,0,0,1-3.152-7.044,9.258,9.258,0,0,1,1.235-4.574Z" transform="translate(-61.592 -38.279)" fill="#d51b61"/>
      <path id="Path_33" data-name="Path 33" d="M147.658,66.556a12.729,12.729,0,0,1-1.458,1.276,12.868,12.868,0,0,0,1.264,1.605,14.906,14.906,0,0,0,1.452-1.252,11.294,11.294,0,0,1-1.258-1.635Z" transform="translate(-79.326 -46.594)" fill="#a41d3f"/>
      <path id="Path_34" data-name="Path 34" d="M147.54,41.24a11.935,11.935,0,0,1,1.341,1.388A10.953,10.953,0,0,1,150.3,41.14a14.018,14.018,0,0,0-1.341-1.37,12.879,12.879,0,0,0-1.417,1.47Z" transform="translate(-79.878 -35.56)" fill="#a41d3f"/>
      <path id="Path_35" data-name="Path 35" d="M50.97,139.589a12.094,12.094,0,0,0,1.94,3.016,17.881,17.881,0,0,1,6.5-1.223,17.609,17.609,0,0,1,6.368,1.176,9.932,9.932,0,0,0,.635-.953,11.329,11.329,0,0,0,.976-2.217,21.519,21.519,0,0,0-16.416.2Z" transform="translate(-40.089 -75.976)" fill="#6155a3"/>
      <path id="Path_36" data-name="Path 36" d="M60.831,145.849a15.074,15.074,0,0,1,6.738,8.208.485.485,0,0,1-.065.447.38.38,0,0,1-.329.171H36.407a.369.369,0,0,1-.329-.171.485.485,0,0,1-.065-.447,15.012,15.012,0,0,1,6.579-8.108,15.254,15.254,0,0,1-1.84-3.022,18.588,18.588,0,0,0-8.091,10.054,3.971,3.971,0,0,0,3.751,5.221H67.181a3.971,3.971,0,0,0,3.751-5.221,18.682,18.682,0,0,0-8.49-10.3,14.026,14.026,0,0,1-1.105,2.393q-.238.406-.494.776Z" transform="translate(-32.463 -77.962)" fill="#6155a3"/>
      <path id="Path_37" data-name="Path 37" d="M60.167,149.068a8.212,8.212,0,0,1-6.75-2.111,10.584,10.584,0,0,1-1.052-1.064,16.834,16.834,0,0,0-2.7,1.352,14.237,14.237,0,0,0,1.834,1.929,11.371,11.371,0,0,0,7.45,2.928,10.48,10.48,0,0,0,1.705-.141,10.943,10.943,0,0,0,7.267-4.816,17.132,17.132,0,0,0-2.681-1.305,7.941,7.941,0,0,1-5.068,3.222Z" transform="translate(-39.549 -79.263)" fill="#68348c"/>
      <path id="Path_38" data-name="Path 38" d="M60.2,75.74a11.911,11.911,0,0,0-.594,2.881c4.075.564,7.673,4.439,8.532,9.608l.106.623a11.906,11.906,0,0,0,2.952-.135l-.159-.964c-1.058-6.385-5.6-11.172-10.836-12.006Z" transform="translate(-43.648 -50.381)" fill="#68348c"/>
      <path id="Path_39" data-name="Path 39" d="M44.769,110.521l-3.216-19.4a12.587,12.587,0,0,1,1.394-8.379,8.238,8.238,0,0,1,5.586-4.151,14.273,14.273,0,0,1,.523-3.028c-.294.024-.588.053-.882.106a11.092,11.092,0,0,0-7.761,5.592A15.5,15.5,0,0,0,38.66,91.594L41.876,111a16.47,16.47,0,0,0,1.323,4.269,20.559,20.559,0,0,1,2.6-1.346A13.827,13.827,0,0,1,44.769,110.521Z" transform="translate(-34.922 -50.306)" fill="#68348c"/>
      <path id="Path_40" data-name="Path 40" d="M74.966,101.916l2.722,16.428a13.114,13.114,0,0,1-.417,6.162,19.966,19.966,0,0,1,2.664,1.305,15.957,15.957,0,0,0,.647-7.944L77.906,101.74a14.869,14.869,0,0,1-2.381.212c-.188,0-.376-.018-.564-.029Z" transform="translate(-49.973 -61.093)" fill="#68348c"/>
      <path id="Path_41" data-name="Path 41" d="M76.785,142.677a11.168,11.168,0,0,1-.635.953,17.131,17.131,0,0,1,2.681,1.305c.171-.253.341-.512.494-.776a14.027,14.027,0,0,0,1.105-2.393,21.091,21.091,0,0,0-2.664-1.305,11.33,11.33,0,0,1-.976,2.217Z" transform="translate(-50.463 -77.047)" fill="#262162"/>
      <path id="Path_42" data-name="Path 42" d="M51.085,143.816a12.262,12.262,0,0,1-1.94-3.016,20.17,20.17,0,0,0-2.6,1.346,15.255,15.255,0,0,0,1.84,3.022A16.832,16.832,0,0,1,51.085,143.816Z" transform="translate(-38.263 -77.187)" fill="#262162"/>
      <path id="Path_43" data-name="Path 43" d="M60.159,87.675a9.488,9.488,0,0,1-2.2-7.1,6.9,6.9,0,0,0-2.234.018.858.858,0,0,0-.118.029A11.508,11.508,0,0,0,66.985,93.155L66.6,90.8a9.449,9.449,0,0,1-6.432-3.128Z" transform="translate(-41.986 -52.338)" fill="#9d2064"/>
      <path id="Path_44" data-name="Path 44" d="M96.91,71.042A64.626,64.626,0,0,1,86.133,83.1a13.875,13.875,0,0,1-6.8,3.269l.382,2.311a16.231,16.231,0,0,0,7.967-3.81c1.223-1.064,7.679-6.856,11.7-13.388a15.3,15.3,0,0,1-1.852-1.423c-.194.323-.4.647-.617.982Z" transform="translate(-51.774 -48.04)" fill="#9d2064"/>
      <path id="Path_45" data-name="Path 45" d="M58.922,61.987A13.892,13.892,0,0,1,63,55.966,64.819,64.819,0,0,1,76.4,46.917q5.257-2.5,8.755-2.2a12.132,12.132,0,0,1,1.4-2.164C77.291,40.714,63.291,52.6,61.457,54.2A16.181,16.181,0,0,0,56.5,61.893a10.155,10.155,0,0,1,2.428.1Z" transform="translate(-42.367 -36.628)" fill="#9d2064"/>
      <path id="Path_46" data-name="Path 46" d="M112.707,45.84a8.089,8.089,0,0,0-2.54-1.97,10.96,10.96,0,0,0-1.417,1.946,5.781,5.781,0,0,1,2.187,1.57c2.04,2.34,1.946,5.715-.27,10.049a12.736,12.736,0,0,0,1.846,1.482c2.452-4.621,3.381-9.431.194-13.082Z" transform="translate(-63.895 -37.249)" fill="#9d2064"/>
      <path id="Path_47" data-name="Path 47" d="M111.3,66.94c-.306.594-.641,1.205-1.023,1.834a15.439,15.439,0,0,0,1.852,1.423c.359-.588.7-1.182,1.017-1.776A13.493,13.493,0,0,1,111.3,66.94Z" transform="translate(-64.526 -46.755)" fill="#801a41"/>
      <path id="Path_48" data-name="Path 48" d="M107.31,45.326a10.675,10.675,0,0,1,1.417-1.946,8.553,8.553,0,0,0-2.087-.7,13.061,13.061,0,0,0-1.4,2.164,7.113,7.113,0,0,1,2.07.476Z" transform="translate(-62.449 -36.759)" fill="#801a41"/>
      <path id="Path_49" data-name="Path 49" d="M55.723,78.547a7.635,7.635,0,0,1,1.205-.1,7.509,7.509,0,0,1,1.029.082,11.911,11.911,0,0,1,.594-2.881,10.129,10.129,0,0,0-2.428-.1,14.273,14.273,0,0,0-.523,3.028.861.861,0,0,0,.118-.029Z" transform="translate(-41.996 -50.288)" fill="#3b1b51"/>
      <path id="Path_50" data-name="Path 50" d="M74.3,97.945l.388,2.358c.188.006.376.029.564.029a14.278,14.278,0,0,0,2.381-.212l-.382-2.311a11.907,11.907,0,0,1-2.952.135Z" transform="translate(-49.701 -59.474)" fill="#3b1b51"/>
      <path id="Path_51" data-name="Path 51" d="M179.285,48.4a10.991,10.991,0,0,0-.829-1.717,12.831,12.831,0,0,0-2.417,14.253,10.741,10.741,0,0,0,1.346-1.341,11.068,11.068,0,0,1,1.9-11.2Z" transform="translate(-91.138 -38.407)" fill="#f05b2d"/>
      <path id="Path_52" data-name="Path 52" d="M189.42,57.132a1.1,1.1,0,0,1-.776-.318,1.125,1.125,0,0,1-.329-.776l-.047-6.456a1.1,1.1,0,0,1,1.088-1.105l12.018-.082-.623-1.258a12.834,12.834,0,0,0-19.374-4.522,12.971,12.971,0,0,1,.853,1.564,11.034,11.034,0,0,1,6.909-2.475h.082a11,11,0,0,1,9.231,4.957l-9.108.065A2.861,2.861,0,0,0,186.5,49.6l.047,6.456a2.806,2.806,0,0,0,.853,2.017,2.956,2.956,0,0,0,2.029.823l9.108-.065a11.093,11.093,0,0,1-17.116,1.882,11.165,11.165,0,0,1-1.635-2.064,13.521,13.521,0,0,1-1.329,1.2,12.835,12.835,0,0,0,10.76,5.821h.094a12.773,12.773,0,0,0,11.524-7.356l.606-1.27-12.018.082Z" transform="translate(-92.618 -35.63)" fill="#f05b2d"/>
      <path id="Path_53" data-name="Path 53" d="M179.134,70.474a10.908,10.908,0,0,1-.917-1.834,11.154,11.154,0,0,1-1.346,1.341,12.929,12.929,0,0,0,.935,1.7,13.519,13.519,0,0,0,1.329-1.2Z" transform="translate(-91.962 -47.455)" fill="#cd2027"/>
      <path id="Path_54" data-name="Path 54" d="M180.98,45.778a11.266,11.266,0,0,1,.829,1.717c.176-.206.353-.417.547-.612a11.08,11.08,0,0,1,.923-.829,12.97,12.97,0,0,0-.853-1.564,13.676,13.676,0,0,0-1.329,1.158c-.041.041-.076.088-.118.135Z" transform="translate(-93.656 -37.505)" fill="#cd2027"/>
    </g>
    <rect id="Rectangle_454" data-name="Rectangle 454" width="276.672" height="120" fill="none"/>
  </g>
</svg>
