<svg width="302" height="90" viewBox="0 0 302 90" fill="none" xmlns="http://www.w3.org/2000/svg">
  <title>NFCS NetworkPlus</title>
  <g clip-path="url(#clip0_553_5488)">
    <path d="M224.33 76.864C224.913 76.6037 225.367 76.2263 225.704 75.7448C226.041 75.2633 226.21 74.7166 226.21 74.0789C226.21 73.6495 226.145 73.259 226.028 72.9337C225.899 72.5953 225.691 72.309 225.406 72.0487C225.134 71.7754 224.758 71.5281 224.304 71.3329C223.851 71.1377 223.28 70.9425 222.619 70.7733C222.101 70.6562 221.673 70.539 221.31 70.3829C220.947 70.2397 220.675 70.0835 220.481 69.9274C220.325 69.7972 220.209 69.641 220.131 69.4588C220.053 69.2766 220.001 69.0814 219.988 68.8862C219.988 68.6259 220.04 68.3917 220.131 68.1834C220.222 67.9882 220.377 67.806 220.584 67.6629C220.792 67.5197 221.038 67.4026 221.323 67.3245C221.621 67.2464 221.945 67.2074 222.308 67.2074C222.645 67.2074 222.982 67.2724 223.332 67.3896C223.682 67.5067 224.019 67.6759 224.343 67.8841C224.667 68.1053 224.978 68.3526 225.263 68.6519L226.184 67.6498C225.873 67.2724 225.51 66.9471 225.095 66.6868C224.68 66.4265 224.227 66.2183 223.734 66.0751C223.241 65.9319 222.749 65.8669 222.243 65.8669C221.505 65.8669 220.857 65.997 220.273 66.2573C219.69 66.5176 219.237 66.869 218.912 67.3375C218.575 67.793 218.407 68.3266 218.407 68.9253C218.407 69.2897 218.459 69.615 218.575 69.9143C218.692 70.2137 218.848 70.487 219.081 70.7343C219.366 71.0596 219.768 71.3329 220.273 71.5802C220.779 71.8275 221.414 72.0357 222.153 72.2179C222.645 72.348 223.047 72.4652 223.397 72.6083C223.734 72.7385 224.006 72.8816 224.201 73.0118C224.564 73.2851 224.745 73.6625 224.745 74.118C224.745 74.3653 224.693 74.5995 224.615 74.8208C224.525 75.042 224.382 75.2242 224.188 75.3804C223.993 75.5366 223.76 75.6667 223.475 75.7578C223.203 75.8489 222.879 75.8879 222.516 75.8879C221.803 75.8879 221.181 75.7578 220.623 75.5105C220.066 75.2633 219.586 74.8858 219.185 74.3783L218.109 75.3153C218.563 75.927 219.159 76.3955 219.898 76.7209C220.636 77.0462 221.466 77.2154 222.373 77.2154C223.125 77.2154 223.786 77.0853 224.369 76.812M212.38 76.9031C212.911 76.6558 213.378 76.3174 213.78 75.901C214.169 75.4715 214.454 75.016 214.622 74.5084L214.311 74.6776L214.337 77.0592H215.906V66.0751H214.324V73.1029C214.324 73.4412 214.246 73.7666 214.091 74.092C213.935 74.4173 213.715 74.7166 213.43 74.9769C213.158 75.2372 212.834 75.4585 212.458 75.6146C212.082 75.7708 211.68 75.8489 211.239 75.8489C210.319 75.8489 209.606 75.5626 209.101 74.9769C208.595 74.4043 208.336 73.5584 208.336 72.4521V66.0491H206.755V72.8426C206.755 73.7926 206.91 74.5865 207.222 75.2372C207.533 75.8879 207.986 76.3825 208.57 76.7209C209.153 77.0592 209.853 77.2284 210.656 77.2284C211.278 77.2284 211.862 77.1113 212.393 76.864M203.8 61.5851H202.219V77.0592H203.8V61.5851ZM191.798 64.0058H195.855C196.321 64.0058 196.749 64.1229 197.112 64.3702C197.475 64.6175 197.773 64.9429 197.98 65.3593C198.188 65.7758 198.291 66.2443 198.291 66.7649C198.291 67.2854 198.188 67.806 197.98 68.2485C197.773 68.691 197.488 69.0424 197.112 69.3027C196.749 69.563 196.321 69.6931 195.855 69.6931H191.798V64.0058ZM191.798 77.0592V71.3069H195.855C196.645 71.3069 197.345 71.1117 197.967 70.6952C198.589 70.2918 199.069 69.7452 199.432 69.0684C199.795 68.3917 199.976 67.6238 199.976 66.7649C199.976 65.9059 199.795 65.1771 199.432 64.5264C199.069 63.8757 198.576 63.3551 197.967 62.9777C197.345 62.6003 196.645 62.4181 195.855 62.4181H190.152V77.0592H191.798ZM188.078 77.0592L182.66 70.7603L181.533 71.8014L186.056 77.0462H188.078V77.0592ZM180.172 61.5851H178.59V77.0592H180.172V61.5851ZM187.767 66.0751H185.602L179.912 71.7233L179.977 73.5193L187.767 66.0751ZM172.447 77.0592V70.6562C172.447 70.2657 172.525 69.8883 172.667 69.5109C172.81 69.1465 173.017 68.8081 173.276 68.5218C173.536 68.2225 173.86 68.0012 174.223 67.819C174.585 67.6498 174.987 67.5587 175.415 67.5587C175.596 67.5587 175.791 67.5848 175.985 67.6368C176.18 67.6889 176.387 67.7409 176.581 67.819L176.996 66.0881C176.854 66.0361 176.685 65.984 176.478 65.958C176.27 65.9189 176.05 65.9059 175.817 65.9059C175.234 65.9059 174.702 66.0361 174.21 66.2963C173.717 66.5566 173.315 66.895 172.965 67.3245C172.628 67.754 172.382 68.2225 172.252 68.73L172.434 69.2766L172.408 66.1011H170.827V77.0853H172.434V77.0592H172.447ZM160.976 75.2502C160.367 74.8858 159.9 74.3783 159.551 73.7406C159.201 73.1029 159.032 72.3741 159.058 71.5672C159.058 70.7603 159.214 70.0315 159.551 69.4068C159.9 68.7691 160.38 68.2745 160.976 67.9101C161.585 67.5457 162.259 67.3635 163.024 67.3635C163.789 67.3635 164.476 67.5457 165.072 67.9101C165.681 68.2745 166.148 68.7691 166.485 69.3938C166.822 70.0185 166.99 70.7473 166.977 71.5672C166.977 72.3741 166.822 73.1029 166.485 73.7406C166.148 74.3783 165.668 74.8858 165.072 75.2502C164.463 75.6146 163.789 75.8099 163.024 75.8099C162.259 75.8099 161.572 75.6277 160.976 75.2502ZM165.889 76.5256C166.731 76.0311 167.392 75.3544 167.872 74.4954C168.351 73.6365 168.584 72.6604 168.584 71.5542C168.584 70.4479 168.351 69.4719 167.872 68.6259C167.392 67.78 166.731 67.1032 165.889 66.6217C165.046 66.1272 164.1 65.8929 163.024 65.8929C161.948 65.8929 161.002 66.1402 160.16 66.6217C159.317 67.1163 158.656 67.78 158.177 68.6259C157.684 69.4719 157.451 70.4479 157.451 71.5542C157.451 72.6604 157.697 73.6365 158.177 74.4954C158.656 75.3544 159.33 76.0311 160.16 76.5256C161.002 77.0202 161.948 77.2675 163.024 77.2675C164.1 77.2675 165.046 77.0202 165.889 76.5256ZM146.097 77.0592L149.143 69.4849L148.702 69.4458L151.891 77.0592H152.953L156.699 66.0751H155.092L152.072 75.042L152.552 75.016L149.467 67.78H148.508L145.449 74.99L145.864 75.016L142.87 66.0491L141.249 66.0751L145.034 77.0592H146.097ZM140.044 66.0751H133.214V67.6238H140.044V66.0751ZM137.309 63.277H135.728V77.0592H137.309V63.277ZM129.092 77.0592C129.61 76.9161 130.09 76.7339 130.544 76.4866C130.997 76.2393 131.386 75.953 131.723 75.6146L130.932 74.4824C130.401 74.9509 129.883 75.2893 129.364 75.4975C128.846 75.6927 128.288 75.7968 127.692 75.7968C126.863 75.7968 126.124 75.6146 125.489 75.2633C124.854 74.9119 124.374 74.4173 124.024 73.7796C123.674 73.1419 123.493 72.4001 123.48 71.5281C123.493 70.6692 123.648 69.9274 123.946 69.3027C124.244 68.678 124.685 68.1964 125.268 67.8581C125.852 67.5197 126.539 67.3505 127.355 67.3505C127.925 67.3505 128.444 67.4807 128.923 67.754C129.403 68.0142 129.792 68.3786 130.103 68.8342C130.414 69.2897 130.569 69.8232 130.608 70.4219L130.582 70.9425L130.881 70.5911H122.741L123.078 71.8925H132.203L132.229 71.0987C132.254 70.3308 132.151 69.628 131.917 69.0033C131.684 68.3656 131.347 67.819 130.894 67.3505C130.453 66.882 129.921 66.5306 129.325 66.2703C128.729 66.01 128.068 65.8929 127.381 65.8929C126.59 65.8929 125.865 66.0361 125.191 66.3094C124.53 66.5827 123.946 66.9861 123.467 67.4937C122.987 68.0012 122.611 68.6129 122.339 69.3157C122.067 70.0185 121.937 70.7993 121.937 71.6453C121.937 72.7255 122.171 73.7015 122.65 74.5475C123.13 75.3934 123.791 76.0571 124.633 76.5387C125.476 77.0202 126.448 77.2545 127.55 77.2545C128.068 77.2545 128.573 77.1894 129.092 77.0462M108.924 77.0592V68.9122C108.924 68.6129 108.911 68.2615 108.886 67.8451C108.86 67.4286 108.821 66.9471 108.795 66.3744C108.756 65.8018 108.704 65.1381 108.639 64.3832L108.393 64.5784L117.595 77.0592H119.112V62.4181H117.466V68.8342C117.466 69.8493 117.466 70.7603 117.492 71.5542C117.518 72.348 117.544 73.0378 117.582 73.6365C117.621 74.2351 117.673 74.7427 117.751 75.1982L117.997 75.068L108.769 62.4181H107.265V77.0592H108.924Z" fill="#1a1a1a"/>
    <path d="M289.926 55.6506C290.613 55.3382 291.158 54.9088 291.547 54.3492C291.935 53.8025 292.143 53.1648 292.143 52.4621C292.143 52.0977 292.091 51.7593 291.987 51.4469C291.884 51.1346 291.715 50.8613 291.482 50.627C291.21 50.3147 290.834 50.0544 290.367 49.8202C289.901 49.5859 289.343 49.3907 288.695 49.2085C288.177 49.0653 287.762 48.9482 287.451 48.8311C287.14 48.7139 286.92 48.6358 286.79 48.5578C286.647 48.4536 286.544 48.3495 286.466 48.2324C286.388 48.1153 286.349 47.9851 286.349 47.8289C286.349 47.6988 286.375 47.5947 286.44 47.4906C286.492 47.3865 286.57 47.2954 286.673 47.2173C286.777 47.1392 286.907 47.0871 287.075 47.0481C287.231 47.009 287.425 46.996 287.619 46.996C287.892 46.996 288.203 47.0611 288.514 47.1782C288.838 47.2954 289.149 47.4515 289.473 47.6337C289.797 47.8159 290.069 48.0372 290.302 48.2714L292.065 46.2802C291.689 45.9289 291.261 45.6295 290.782 45.3822C290.302 45.135 289.784 44.9398 289.24 44.7966C288.695 44.6534 288.112 44.5884 287.503 44.5884C286.725 44.5884 285.999 44.7315 285.338 45.0178C284.677 45.3042 284.133 45.7076 283.731 46.2152C283.316 46.7357 283.122 47.3344 283.122 48.0112C283.122 48.4536 283.2 48.8571 283.342 49.2215C283.485 49.5859 283.705 49.9112 283.977 50.1846C284.275 50.4969 284.677 50.7702 285.157 51.0045C285.636 51.2387 286.194 51.4469 286.855 51.6161C287.308 51.7333 287.684 51.8374 287.982 51.9415C288.28 52.0456 288.475 52.1367 288.591 52.2018C288.825 52.3449 288.941 52.5532 288.941 52.8265C288.941 52.9696 288.916 53.0868 288.851 53.1909C288.799 53.295 288.721 53.3861 288.617 53.4642C288.514 53.5423 288.384 53.5943 288.255 53.6464C288.125 53.6984 287.956 53.7114 287.775 53.7114C287.282 53.7114 286.777 53.6073 286.233 53.4121C285.688 53.2169 285.209 52.8915 284.781 52.4621L282.746 54.219C283.252 54.8177 283.913 55.2862 284.742 55.6246C285.572 55.9629 286.518 56.1321 287.568 56.1321C288.449 56.1321 289.24 55.976 289.926 55.6636M278.456 55.9499C278.961 55.8328 279.454 55.6506 279.946 55.4033C280.439 55.156 280.893 54.8567 281.32 54.4923L279.765 52.2799C279.337 52.6182 278.935 52.8525 278.56 52.9957C278.184 53.1388 277.769 53.2039 277.315 53.2039C276.641 53.2039 276.045 53.0737 275.553 52.8265C275.06 52.5792 274.684 52.2278 274.425 51.7593C274.166 51.3038 274.036 50.7702 274.036 50.1715C274.036 49.5729 274.14 49.0653 274.321 48.6619C274.516 48.2584 274.801 47.9461 275.19 47.7378C275.579 47.5166 276.045 47.4125 276.602 47.4125C276.978 47.4125 277.315 47.4906 277.613 47.6467C277.912 47.8029 278.158 48.0112 278.339 48.2584C278.534 48.5187 278.637 48.818 278.663 49.1694V49.5859L279.013 49.2085H272.455L272.96 51.1086H281.748L281.774 50.1846C281.774 49.3777 281.67 48.6358 281.424 47.9461C281.178 47.2563 280.815 46.6707 280.335 46.1631C279.869 45.6555 279.311 45.2651 278.663 44.9918C278.028 44.7185 277.315 44.5754 276.538 44.5754C275.721 44.5754 274.969 44.7185 274.282 45.0048C273.595 45.2911 272.999 45.6946 272.494 46.2022C271.988 46.7227 271.599 47.3344 271.314 48.0502C271.042 48.766 270.9 49.5599 270.9 50.4188C270.9 51.525 271.146 52.5011 271.638 53.3601C272.131 54.219 272.831 54.8958 273.738 55.3773C274.645 55.8718 275.708 56.1061 276.939 56.1061C277.458 56.1061 277.963 56.041 278.469 55.9239M268.1 55.5855C268.942 55.2341 269.603 54.7656 270.083 54.18L268.268 51.9675C268.048 52.2148 267.802 52.436 267.556 52.6182C267.296 52.8004 267.024 52.9436 266.713 53.0347C266.402 53.1258 266.078 53.1779 265.715 53.1779C265.21 53.1779 264.769 53.0477 264.367 52.8004C263.965 52.5532 263.654 52.2148 263.421 51.7853C263.188 51.3558 263.084 50.8873 263.084 50.3537C263.084 49.8202 263.188 49.3256 263.421 48.8961C263.641 48.4667 263.952 48.1283 264.354 47.881C264.756 47.6337 265.223 47.5166 265.754 47.5166C266.104 47.5166 266.441 47.5687 266.752 47.6858C267.076 47.8029 267.361 47.9461 267.62 48.1413C267.88 48.3365 268.113 48.5578 268.281 48.792L270.096 46.5796C269.629 45.9679 268.981 45.4864 268.152 45.122C267.322 44.7706 266.415 44.5884 265.43 44.5884C264.367 44.5884 263.395 44.8356 262.553 45.3432C261.697 45.8378 261.023 46.5275 260.544 47.3995C260.051 48.2714 259.818 49.2605 259.818 50.3798C259.818 51.499 260.064 52.4491 260.544 53.321C261.023 54.193 261.697 54.8827 262.553 55.3773C263.408 55.8848 264.367 56.1321 265.43 56.1321C266.376 56.1321 267.27 55.9499 268.113 55.5985M257.446 42.1287C257.796 41.8033 257.977 41.3868 257.977 40.8793C257.977 40.3197 257.796 39.8902 257.446 39.5908C257.096 39.2915 256.603 39.1353 255.994 39.1353C255.385 39.1353 254.88 39.2915 254.517 39.6169C254.154 39.9422 253.972 40.3587 253.972 40.8663C253.972 41.4259 254.154 41.8554 254.504 42.1547C254.854 42.454 255.346 42.6102 255.994 42.6102C256.642 42.6102 257.083 42.454 257.446 42.1287ZM257.666 44.8096H254.309V55.9109H257.666V44.8096ZM247.803 55.9109L252.676 44.8096H249.008L246.183 53.1258L246.999 53.0217L244.251 44.8096H240.571L245.198 55.9109H247.816H247.803ZM235.205 55.9109V50.3668C235.205 50.0284 235.256 49.729 235.36 49.4688C235.464 49.2085 235.606 48.9742 235.801 48.779C235.982 48.5838 236.216 48.4276 236.462 48.3235C236.721 48.2194 237.006 48.1673 237.304 48.1673C237.577 48.1673 237.849 48.1934 238.108 48.2584C238.367 48.3235 238.575 48.4016 238.717 48.4797L239.611 44.7836C239.443 44.7185 239.249 44.6665 239.041 44.6274C238.821 44.5884 238.587 44.5754 238.341 44.5754C237.771 44.5754 237.227 44.7185 236.708 44.9918C236.19 45.2651 235.736 45.6425 235.36 46.1241C234.984 46.5926 234.712 47.1262 234.531 47.7118L235.153 48.4276L235.01 44.8096H231.822V55.9109H235.205ZM226.469 55.9499C226.974 55.8328 227.467 55.6506 227.959 55.4033C228.452 55.156 228.906 54.8567 229.333 54.4923L227.778 52.2799C227.35 52.6182 226.948 52.8525 226.573 52.9957C226.197 53.1388 225.782 53.2039 225.328 53.2039C224.641 53.2039 224.058 53.0737 223.566 52.8265C223.073 52.5792 222.697 52.2278 222.438 51.7593C222.179 51.3038 222.049 50.7702 222.049 50.1715C222.049 49.5729 222.153 49.0653 222.347 48.6619C222.542 48.2584 222.827 47.9461 223.216 47.7378C223.591 47.5166 224.071 47.4125 224.615 47.4125C224.991 47.4125 225.328 47.4906 225.626 47.6467C225.924 47.8029 226.171 48.0112 226.352 48.2584C226.547 48.5187 226.65 48.818 226.676 49.1694V49.5859L227.026 49.2085H220.468L220.973 51.1086H229.761L229.787 50.1846C229.8 49.3777 229.683 48.6358 229.437 47.9461C229.191 47.2693 228.828 46.6707 228.348 46.1631C227.882 45.6555 227.324 45.2651 226.676 44.9918C226.041 44.7185 225.328 44.5754 224.551 44.5754C223.734 44.5754 222.982 44.7185 222.295 45.0048C221.608 45.2911 221.012 45.6946 220.507 46.2022C220.001 46.7227 219.612 47.3344 219.327 48.0502C219.055 48.766 218.913 49.5599 218.913 50.4188C218.913 51.525 219.159 52.5011 219.651 53.3601C220.144 54.219 220.844 54.8958 221.751 55.3773C222.658 55.8718 223.721 56.1061 224.952 56.1061C225.471 56.1061 225.976 56.041 226.482 55.9239M214.596 55.5595C215.452 55.1821 216.126 54.6355 216.618 53.9327C217.111 53.2169 217.344 52.358 217.344 51.3558C217.344 50.7181 217.228 50.1455 216.981 49.651C216.735 49.1564 216.398 48.7269 215.957 48.3495C215.517 47.9851 214.985 47.6728 214.363 47.4255C213.741 47.1782 213.054 46.97 212.289 46.8268C211.952 46.7748 211.641 46.6967 211.33 46.6056C211.032 46.5145 210.76 46.4104 210.514 46.2802C210.28 46.1501 210.099 46.0069 209.956 45.8247C209.827 45.6555 209.762 45.4473 209.762 45.2261C209.762 44.9658 209.84 44.7315 209.995 44.5493C210.151 44.3671 210.384 44.224 210.695 44.1199C211.006 44.0157 211.356 43.9767 211.758 43.9767C212.354 43.9767 212.924 44.1199 213.469 44.3932C214.013 44.6665 214.506 45.0959 214.933 45.6425L217.137 43.4952C216.618 42.7013 215.931 42.0766 215.063 41.6211C214.195 41.1656 213.054 40.9443 211.641 40.9443C210.669 40.9443 209.762 41.1396 208.932 41.504C208.103 41.8684 207.429 42.402 206.923 43.0657C206.418 43.7294 206.159 44.5103 206.159 45.4083C206.159 46.033 206.262 46.5926 206.457 47.0871C206.651 47.5817 206.949 48.0242 207.338 48.4016C207.74 48.779 208.22 49.1174 208.816 49.3907C209.399 49.664 210.099 49.8852 210.903 50.0544C211.201 50.1065 211.486 50.1715 211.771 50.2366C212.056 50.3017 212.315 50.3928 212.549 50.4969C212.782 50.601 212.989 50.7181 213.171 50.8483C213.352 50.9784 213.495 51.1216 213.598 51.2908C213.702 51.46 213.754 51.6422 213.754 51.8504C213.754 52.1107 213.663 52.3449 213.495 52.5271C213.326 52.7093 213.08 52.8525 212.782 52.9566C212.484 53.0607 212.147 53.0998 211.771 53.0998C211.032 53.0998 210.319 52.9436 209.619 52.6182C208.919 52.2929 208.233 51.6682 207.559 50.7312L205.394 53.1779C206.107 54.1149 206.949 54.8307 207.947 55.3382C208.932 55.8458 210.151 56.1061 211.602 56.1061C212.717 56.1061 213.702 55.9239 214.558 55.5465M195.725 55.9499C196.231 55.8328 196.723 55.6506 197.216 55.4033C197.708 55.156 198.162 54.8567 198.589 54.4923L197.034 52.2799C196.606 52.6182 196.205 52.8525 195.829 52.9957C195.453 53.1388 195.038 53.2039 194.584 53.2039C193.91 53.2039 193.314 53.0737 192.822 52.8265C192.329 52.5792 191.953 52.2278 191.694 51.7593C191.435 51.3038 191.305 50.7702 191.305 50.1715C191.305 49.5729 191.396 49.0653 191.59 48.6619C191.785 48.2584 192.07 47.9461 192.459 47.7378C192.835 47.5166 193.314 47.4125 193.859 47.4125C194.235 47.4125 194.572 47.4906 194.87 47.6467C195.168 47.8029 195.414 48.0112 195.595 48.2584C195.777 48.5187 195.894 48.818 195.919 49.1694V49.5859L196.269 49.2085H189.711L190.217 51.1086H199.004L199.03 50.1846C199.03 49.3777 198.926 48.6358 198.68 47.9461C198.434 47.2693 198.071 46.6707 197.591 46.1631C197.125 45.6555 196.568 45.2651 195.919 44.9918C195.284 44.7185 194.572 44.5754 193.794 44.5754C192.977 44.5754 192.226 44.7185 191.539 45.0048C190.852 45.2911 190.255 45.6946 189.75 46.2022C189.244 46.7097 188.856 47.3344 188.571 48.0502C188.285 48.766 188.156 49.5599 188.156 50.4188C188.156 51.525 188.402 52.5011 188.895 53.3601C189.387 54.219 190.087 54.8958 190.994 55.3773C191.902 55.8718 192.964 56.1061 194.196 56.1061C194.714 56.1061 195.22 56.041 195.725 55.9239M187.106 44.8096H179.666V47.7509H187.106V44.8096ZM184.98 42.0115H181.623V55.9109H184.98V42.0115ZM172.965 55.7677C173.51 55.5335 173.976 55.2081 174.365 54.7786C174.754 54.3622 175.039 53.8937 175.182 53.3731L174.573 53.6203L174.702 55.8979H177.852V44.7966H174.495V51.4079C174.495 51.6812 174.443 51.9415 174.352 52.1758C174.248 52.41 174.119 52.6182 173.95 52.7874C173.782 52.9566 173.575 53.0998 173.341 53.1909C173.108 53.282 172.836 53.321 172.551 53.321C171.967 53.321 171.514 53.1258 171.19 52.7484C170.866 52.371 170.697 51.8374 170.697 51.1476V44.7966H167.34V51.6552C167.34 52.5922 167.496 53.3861 167.807 54.0498C168.118 54.7136 168.572 55.2211 169.155 55.5725C169.738 55.9239 170.425 56.1061 171.242 56.1061C171.851 56.1061 172.434 55.989 172.965 55.7547M158.28 52.9046C157.905 52.6703 157.619 52.3319 157.412 51.8894C157.205 51.4469 157.101 50.9394 157.101 50.3668C157.101 49.7941 157.205 49.2475 157.412 48.818C157.619 48.3886 157.917 48.0502 158.28 47.8029C158.656 47.5556 159.097 47.4385 159.615 47.4385C160.134 47.4385 160.549 47.5556 160.911 47.8029C161.274 48.0502 161.56 48.3886 161.767 48.8311C161.961 49.2735 162.065 49.7811 162.065 50.3668C162.065 50.9524 161.961 51.4469 161.767 51.8894C161.572 52.3319 161.274 52.6703 160.911 52.9046C160.549 53.1388 160.108 53.2559 159.615 53.2559C159.123 53.2559 158.656 53.1388 158.28 52.9046ZM157.205 60.518V53.2039L156.427 53.5162C156.544 53.9717 156.79 54.4012 157.179 54.7916C157.568 55.1821 158.047 55.4944 158.617 55.7417C159.188 55.989 159.784 56.1061 160.432 56.1061C161.378 56.1061 162.221 55.8588 162.959 55.3643C163.698 54.8697 164.281 54.193 164.709 53.321C165.137 52.4621 165.344 51.473 165.344 50.3668C165.344 49.2605 165.137 48.2324 164.709 47.3604C164.281 46.4885 163.711 45.8117 162.972 45.3172C162.234 44.8226 161.391 44.5884 160.458 44.5884C159.823 44.5884 159.214 44.7055 158.643 44.9398C158.073 45.174 157.593 45.4733 157.218 45.8377C156.842 46.2022 156.608 46.6186 156.518 47.0611L157.166 47.2563L157.023 44.8096H153.835V60.518H157.205ZM137.283 55.9109V49.3256C137.283 49.0523 137.335 48.792 137.426 48.5708C137.517 48.3495 137.659 48.1543 137.828 47.9721C137.996 47.7899 138.217 47.6728 138.45 47.5817C138.696 47.4906 138.955 47.4515 139.228 47.4515C139.746 47.4515 140.135 47.6207 140.42 47.9591C140.705 48.2975 140.848 48.779 140.848 49.4037V55.9239H144.205V49.3386C144.205 49.0653 144.256 48.805 144.347 48.5838C144.438 48.3625 144.58 48.1673 144.749 47.9851C144.917 47.8029 145.138 47.6858 145.371 47.5947C145.617 47.5036 145.877 47.4645 146.175 47.4645C146.719 47.4645 147.121 47.6337 147.393 47.9591C147.665 48.2845 147.795 48.779 147.795 49.4297V55.9369H151.152V49.1824C151.152 48.1934 151.009 47.3604 150.711 46.6837C150.413 46.0069 149.985 45.4994 149.402 45.148C148.819 44.7966 148.093 44.6274 147.212 44.6274C146.862 44.6274 146.512 44.6795 146.136 44.7706C145.773 44.8747 145.41 45.0178 145.06 45.2131C144.71 45.4083 144.399 45.6425 144.114 45.9158C143.829 46.1891 143.595 46.4885 143.401 46.8268L143.258 47.1262L143.764 47.2173C143.569 46.5926 143.31 46.085 142.986 45.7076C142.662 45.3302 142.273 45.0569 141.846 44.8877C141.405 44.7185 140.912 44.6404 140.355 44.6404C139.992 44.6404 139.629 44.6925 139.279 44.7966C138.916 44.9007 138.579 45.0439 138.255 45.2391C137.931 45.4213 137.633 45.6686 137.374 45.9419C137.115 46.2152 136.907 46.5405 136.752 46.9049L137.206 46.8659L137.102 44.8617H133.913V55.9629H137.283V55.9109ZM124.568 52.8655C124.18 52.6182 123.869 52.2669 123.648 51.8374C123.428 51.4079 123.311 50.9134 123.311 50.3798C123.311 49.8071 123.415 49.3126 123.648 48.8701C123.869 48.4406 124.18 48.1023 124.568 47.842C124.957 47.5947 125.398 47.4645 125.878 47.4645C126.357 47.4645 126.798 47.5817 127.187 47.8289C127.575 48.0762 127.887 48.4146 128.107 48.8571C128.327 49.2996 128.431 49.8071 128.418 50.3668C128.431 50.9134 128.327 51.3949 128.107 51.8244C127.887 52.2538 127.588 52.6052 127.2 52.8525C126.811 53.0998 126.37 53.2299 125.878 53.2299C125.385 53.2299 124.957 53.0998 124.568 52.8525M128.962 55.3773C129.857 54.8827 130.569 54.206 131.075 53.334C131.593 52.4621 131.84 51.473 131.84 50.3798C131.84 49.2866 131.58 48.2454 131.075 47.3734C130.557 46.5015 129.857 45.8247 128.962 45.3302C128.068 44.8356 127.044 44.5884 125.891 44.5884C124.737 44.5884 123.726 44.8356 122.832 45.3302C121.924 45.8247 121.225 46.5145 120.706 47.3734C120.188 48.2454 119.941 49.2475 119.941 50.3798C119.941 51.512 120.201 52.4621 120.706 53.334C121.225 54.206 121.924 54.8827 122.832 55.3773C123.739 55.8718 124.75 56.1191 125.891 56.1191C127.031 56.1191 128.068 55.8718 128.962 55.3773ZM115.729 55.8588C116.429 55.6896 117.064 55.4424 117.647 55.143C118.218 54.8307 118.684 54.4923 119.008 54.1149L117.284 51.3558C117.038 51.6291 116.74 51.8894 116.39 52.1107C116.04 52.3319 115.677 52.5011 115.275 52.6182C114.874 52.7354 114.472 52.8004 114.031 52.8004C113.383 52.8004 112.787 52.7093 112.255 52.5011C111.724 52.3059 111.257 52.0196 110.882 51.6552C110.506 51.2908 110.208 50.8353 110.013 50.3147C109.819 49.7941 109.715 49.2085 109.715 48.5708C109.715 47.9331 109.819 47.3344 110.026 46.8138C110.233 46.2933 110.519 45.8508 110.882 45.4733C111.244 45.0959 111.672 44.8096 112.165 44.6144C112.657 44.4192 113.176 44.3281 113.733 44.3281C114.381 44.3281 114.977 44.4582 115.509 44.7185C116.04 44.9788 116.533 45.3562 116.96 45.8247L119.151 43.339C118.736 42.8314 118.231 42.415 117.66 42.0506C117.077 41.6992 116.468 41.4259 115.794 41.2437C115.133 41.0615 114.446 40.9704 113.759 40.9704C112.657 40.9704 111.646 41.1526 110.713 41.53C109.78 41.9074 108.963 42.441 108.263 43.1177C107.564 43.7945 107.032 44.6014 106.656 45.5254C106.28 46.4494 106.086 47.4515 106.086 48.5317C106.086 49.6119 106.267 50.6401 106.643 51.5771C107.006 52.5011 107.525 53.308 108.199 53.9847C108.873 54.6615 109.676 55.1821 110.596 55.5465C111.517 55.9109 112.528 56.1061 113.629 56.1061C114.355 56.1061 115.068 56.015 115.768 55.8458" fill="#1a1a1a"/>
    <path d="M294.696 31.8343C294.333 31.587 294.035 31.2486 293.828 30.7931C293.62 30.3506 293.517 29.8301 293.517 29.2314C293.517 28.6327 293.62 28.0861 293.828 27.6437C294.035 27.2012 294.32 26.8498 294.696 26.6025C295.059 26.3552 295.5 26.2381 296.005 26.2381C296.511 26.2381 296.964 26.3552 297.327 26.6025C297.69 26.8498 297.988 27.1881 298.196 27.6437C298.403 28.0861 298.507 28.6197 298.507 29.2314C298.507 29.8431 298.403 30.3506 298.196 30.7931C297.988 31.2356 297.703 31.587 297.327 31.8343C296.964 32.0816 296.524 32.1987 296.005 32.1987C295.487 32.1987 295.072 32.0816 294.696 31.8343ZM296.627 34.7625C297.081 34.6194 297.496 34.4372 297.872 34.1899C298.235 33.9426 298.533 33.6693 298.753 33.357C298.973 33.0446 299.103 32.7193 299.129 32.3809L298.468 32.2507L298.662 34.7625H301.786V19.2884H298.429V26.4333L299.246 26.2511C299.194 25.8737 299.038 25.5223 298.805 25.1839C298.572 24.8456 298.274 24.5462 297.898 24.2859C297.535 24.0257 297.107 23.8174 296.653 23.6613C296.187 23.5051 295.707 23.427 295.202 23.427C294.243 23.427 293.387 23.6743 292.635 24.1818C291.884 24.6894 291.287 25.3661 290.86 26.2381C290.432 27.1101 290.212 28.0992 290.212 29.2184C290.212 30.3376 290.432 31.3267 290.86 32.1987C291.287 33.0706 291.884 33.7474 292.635 34.2419C293.387 34.7365 294.243 34.9707 295.189 34.9707C295.707 34.9707 296.187 34.9057 296.64 34.7625M285.52 34.8016C286.025 34.6844 286.518 34.5022 287.01 34.255C287.503 34.0077 287.956 33.7084 288.384 33.3439L286.829 31.1315C286.401 31.4699 285.999 31.7041 285.623 31.8473C285.248 31.9905 284.833 32.0555 284.379 32.0555C283.692 32.0555 283.109 31.9254 282.616 31.6781C282.124 31.4308 281.748 31.0664 281.489 30.6109C281.23 30.1554 281.1 29.6218 281.1 29.0232C281.1 28.4245 281.204 27.917 281.398 27.5135C281.593 27.1101 281.878 26.7977 282.267 26.5895C282.642 26.3682 283.122 26.2641 283.666 26.2641C284.042 26.2641 284.379 26.3422 284.677 26.4984C284.975 26.6546 285.222 26.8628 285.403 27.1101C285.585 27.3704 285.701 27.6697 285.727 28.0211V28.4375L286.077 28.0601H279.519L280.024 29.9602H288.812L288.838 29.0362C288.838 28.2293 288.734 27.4875 288.488 26.7977C288.242 26.121 287.879 25.5223 287.399 25.0147C286.933 24.5072 286.375 24.1298 285.727 23.8435C285.092 23.5702 284.379 23.427 283.602 23.427C282.785 23.427 282.033 23.5702 281.346 23.8565C280.659 24.1428 280.063 24.5462 279.558 25.0538C279.052 25.5744 278.663 26.186 278.378 26.9018C278.093 27.6176 277.963 28.4115 277.963 29.2704C277.963 30.3767 278.21 31.3527 278.702 32.2117C279.195 33.0706 279.895 33.7474 280.802 34.2289C281.709 34.7235 282.772 34.9577 284.003 34.9577C284.522 34.9577 285.027 34.8927 285.533 34.7755M276.901 23.6613H269.461V26.6155H276.901V23.6613ZM274.788 20.8632H271.431V34.7625H274.788V20.8632ZM263.382 34.6584C263.862 34.4502 264.302 34.1639 264.717 33.7995C265.119 33.4351 265.482 33.0186 265.767 32.5501L265.184 31.0404C265.028 31.3267 264.821 31.587 264.575 31.8083C264.315 32.0295 264.03 32.1987 263.706 32.3158C263.382 32.4329 263.032 32.498 262.682 32.498C262.436 32.498 262.216 32.459 262.021 32.3679C261.84 32.2768 261.684 32.1596 261.581 32.0165C261.464 31.8603 261.412 31.6781 261.412 31.4699C261.412 31.2747 261.451 31.1055 261.529 30.9623C261.606 30.8192 261.723 30.702 261.879 30.5979C262.034 30.4938 262.216 30.4157 262.436 30.3637C262.656 30.3116 262.916 30.2856 263.201 30.2856H266.285L266.467 28.1772H263.11C262.293 28.1772 261.568 28.2553 260.958 28.3985C260.336 28.5416 259.831 28.7629 259.416 29.0492C259.001 29.3355 258.703 29.6999 258.496 30.1294C258.288 30.5589 258.185 31.0664 258.185 31.6391C258.185 32.3028 258.353 32.8884 258.677 33.383C259.001 33.8775 259.455 34.268 260.012 34.5413C260.57 34.8146 261.205 34.9577 261.892 34.9577C262.423 34.9577 262.929 34.8536 263.395 34.6454M267.983 34.7625V27.3053C267.983 26.4203 267.789 25.7045 267.426 25.1319C267.063 24.5592 266.519 24.1298 265.845 23.8565C265.171 23.5832 264.354 23.44 263.434 23.44C262.423 23.44 261.49 23.6352 260.621 24.0257C259.766 24.4161 259.001 24.9497 258.327 25.6394L260.323 27.5786C260.712 27.1231 261.114 26.7847 261.542 26.5895C261.969 26.3943 262.449 26.2902 262.993 26.2902C263.538 26.2902 263.978 26.4333 264.289 26.6936C264.601 26.9669 264.756 27.3834 264.756 27.956V34.7755H267.983V34.7625ZM252.832 34.7625V29.2184C252.832 28.88 252.884 28.5807 252.987 28.3204C253.091 28.0601 253.234 27.8259 253.428 27.6306C253.609 27.4354 253.843 27.2793 254.089 27.1751C254.348 27.071 254.62 27.019 254.932 27.019C255.204 27.019 255.476 27.045 255.735 27.1101C255.994 27.1751 256.202 27.2402 256.344 27.3313L257.239 23.6352C257.07 23.5702 256.876 23.5181 256.668 23.4791C256.448 23.44 256.215 23.427 255.968 23.427C255.398 23.427 254.854 23.5702 254.335 23.8435C253.817 24.1168 253.363 24.4942 252.987 24.9757C252.611 25.4442 252.339 25.9778 252.158 26.5635L252.78 27.2793L252.637 23.6613H249.449V34.7625H252.832ZM244.109 34.8016C244.614 34.6844 245.107 34.5022 245.6 34.255C246.092 34.0077 246.546 33.7084 246.973 33.3439L245.418 31.1315C244.99 31.4699 244.589 31.7041 244.213 31.8473C243.837 31.9905 243.422 32.0555 242.968 32.0555C242.294 32.0555 241.698 31.9254 241.206 31.6781C240.713 31.4308 240.337 31.0664 240.078 30.6109C239.819 30.1554 239.689 29.6218 239.689 29.0232C239.689 28.4245 239.78 27.917 239.987 27.5135C240.182 27.1101 240.467 26.7977 240.856 26.5895C241.245 26.3682 241.711 26.2641 242.268 26.2641C242.644 26.2641 242.981 26.3422 243.279 26.4984C243.578 26.6546 243.824 26.8628 244.005 27.1101C244.2 27.3704 244.303 27.6697 244.329 28.0211V28.4375L244.679 28.0601H238.121L238.626 29.9602H247.414L247.44 29.0362C247.453 28.2293 247.336 27.4875 247.09 26.7977C246.844 26.121 246.481 25.5223 246.001 25.0147C245.535 24.5072 244.977 24.1298 244.329 23.8435C243.694 23.5702 242.981 23.427 242.204 23.427C241.387 23.427 240.635 23.5702 239.948 23.8565C239.262 24.1428 238.665 24.5462 238.16 25.0538C237.654 25.5744 237.266 26.186 236.98 26.9018C236.708 27.6176 236.566 28.4115 236.566 29.2704C236.566 30.3767 236.812 31.3527 237.304 32.2117C237.797 33.0706 238.497 33.7474 239.404 34.2289C240.311 34.7235 241.374 34.9577 242.605 34.9577C243.124 34.9577 243.629 34.8927 244.135 34.7755M227.467 31.8343C227.104 31.587 226.806 31.2486 226.599 30.7931C226.391 30.3506 226.287 29.8301 226.287 29.2314C226.287 28.6327 226.391 28.0861 226.599 27.6437C226.806 27.2012 227.091 26.8498 227.467 26.6025C227.83 26.3552 228.27 26.2381 228.763 26.2381C229.256 26.2381 229.722 26.3552 230.085 26.6025C230.448 26.8498 230.746 27.1881 230.953 27.6437C231.161 28.0861 231.265 28.6197 231.265 29.2314C231.265 29.8431 231.161 30.3506 230.953 30.7931C230.746 31.2356 230.461 31.587 230.085 31.8343C229.722 32.0816 229.281 32.1987 228.763 32.1987C228.245 32.1987 227.83 32.0816 227.467 31.8343ZM229.385 34.7625C229.839 34.6194 230.254 34.4372 230.629 34.1899C230.992 33.9426 231.29 33.6693 231.511 33.357C231.731 33.0446 231.861 32.7193 231.887 32.3809L231.226 32.2507L231.42 34.7625H234.544V19.2884H231.187V26.4333L232.003 26.2511C231.951 25.8737 231.809 25.5223 231.563 25.1839C231.329 24.8456 231.018 24.5462 230.655 24.2859C230.292 24.0257 229.878 23.8174 229.411 23.6613C228.944 23.5051 228.465 23.427 227.959 23.427C227 23.427 226.145 23.6743 225.393 24.1818C224.641 24.6894 224.045 25.3661 223.617 26.2381C223.19 27.1101 222.969 28.0992 222.969 29.2184C222.969 30.3376 223.19 31.3267 223.617 32.1987C224.045 33.0706 224.641 33.7474 225.393 34.2419C226.145 34.7365 227 34.9707 227.946 34.9707C228.465 34.9707 228.944 34.9057 229.398 34.7625M218.29 34.8016C218.796 34.6844 219.288 34.5022 219.781 34.255C220.273 34.0077 220.727 33.7084 221.155 33.3439L219.587 31.1315C219.159 31.4699 218.757 31.7041 218.381 31.8473C218.005 31.9905 217.591 32.0555 217.137 32.0555C216.463 32.0555 215.867 31.9254 215.374 31.6781C214.882 31.4308 214.506 31.0664 214.247 30.6109C213.987 30.1554 213.858 29.6218 213.858 29.0232C213.858 28.4245 213.948 27.917 214.143 27.5135C214.337 27.1101 214.622 26.7977 215.011 26.5895C215.387 26.3682 215.867 26.2641 216.411 26.2641C216.787 26.2641 217.124 26.3422 217.422 26.4984C217.72 26.6546 217.966 26.8628 218.148 27.1101C218.329 27.3704 218.446 27.6697 218.472 28.0211V28.4375L218.822 28.0601H212.263L212.769 29.9602H221.557L221.583 29.0362C221.596 28.2293 221.479 27.4875 221.233 26.7977C220.986 26.121 220.623 25.5223 220.157 25.0147C219.69 24.5072 219.133 24.1298 218.485 23.8435C217.85 23.5702 217.137 23.427 216.359 23.427C215.543 23.427 214.791 23.5702 214.104 23.8565C213.417 24.1428 212.821 24.5462 212.315 25.0538C211.81 25.5744 211.421 26.186 211.136 26.9018C210.864 27.6176 210.721 28.4115 210.721 29.2704C210.721 30.3767 210.967 31.3527 211.46 32.2117C211.952 33.0706 212.652 33.7474 213.56 34.2289C214.467 34.7235 215.53 34.9577 216.761 34.9577C217.279 34.9577 217.785 34.8927 218.29 34.7755M209.516 20.1344H201.104V23.2969H209.516V20.1344ZM208.686 26.173H201.104V29.1663H208.686V26.173ZM202.996 20.1344H199.432V34.7755H202.996V20.1344ZM190.813 19.2884H187.456V34.7625H190.813V19.2884ZM180.275 34.6584C180.755 34.4502 181.196 34.1639 181.61 33.7995C182.012 33.4351 182.375 33.0186 182.66 32.5501L182.077 31.0404C181.922 31.3267 181.714 31.587 181.468 31.8083C181.209 32.0295 180.924 32.1987 180.587 32.3158C180.262 32.4329 179.913 32.498 179.563 32.498C179.316 32.498 179.096 32.459 178.902 32.3679C178.72 32.2768 178.565 32.1596 178.448 32.0165C178.331 31.8603 178.279 31.6781 178.279 31.4699C178.279 31.2747 178.318 31.1055 178.396 30.9623C178.474 30.8192 178.591 30.702 178.746 30.5979C178.902 30.4938 179.083 30.4157 179.303 30.3637C179.524 30.3116 179.783 30.2856 180.068 30.2856H183.153L183.334 28.1772H179.977C179.161 28.1772 178.435 28.2553 177.826 28.3985C177.204 28.5416 176.698 28.7629 176.283 29.0492C175.869 29.3355 175.571 29.6999 175.363 30.1294C175.156 30.5589 175.052 31.0664 175.052 31.6391C175.052 32.3028 175.221 32.8884 175.545 33.383C175.869 33.8775 176.322 34.268 176.88 34.5413C177.437 34.8146 178.072 34.9577 178.759 34.9577C179.29 34.9577 179.796 34.8536 180.262 34.6454M184.864 34.7625V27.3053C184.864 26.4203 184.682 25.7045 184.306 25.1319C183.93 24.5592 183.399 24.1298 182.725 23.8565C182.051 23.5832 181.235 23.44 180.314 23.44C179.303 23.44 178.37 23.6352 177.502 24.0257C176.633 24.4161 175.882 24.9497 175.208 25.6394L177.204 27.5786C177.592 27.1231 177.994 26.7847 178.422 26.5895C178.85 26.3943 179.329 26.2902 179.874 26.2902C180.418 26.2902 180.859 26.4333 181.17 26.6936C181.481 26.9669 181.636 27.3834 181.636 27.956V34.7755H184.864V34.7625ZM163.322 34.7625H165.979V28.1512C165.979 27.8779 166.031 27.6176 166.122 27.3964C166.213 27.1751 166.355 26.9799 166.55 26.7977C166.731 26.6285 166.951 26.4984 167.211 26.4073C167.457 26.3162 167.729 26.2641 168.027 26.2641C168.403 26.2641 168.714 26.3162 168.96 26.4593C169.207 26.6025 169.401 26.8107 169.518 27.1101C169.647 27.4094 169.699 27.7738 169.699 28.2163V34.7625H173.056V27.969C173.056 26.9799 172.914 26.147 172.628 25.4703C172.343 24.7935 171.916 24.2859 171.345 23.9476C170.775 23.6092 170.075 23.44 169.246 23.44C168.636 23.44 168.053 23.5702 167.496 23.8174C166.938 24.0647 166.459 24.4031 166.07 24.8065C165.681 25.21 165.396 25.6785 165.254 26.173L165.94 25.9258L165.811 23.6613H162.622V34.7625H163.322ZM153.277 31.7172C152.889 31.4699 152.578 31.1315 152.357 30.689C152.137 30.2595 152.02 29.765 152.02 29.2314C152.02 28.6588 152.124 28.1512 152.357 27.7217C152.578 27.2923 152.889 26.9409 153.277 26.6936C153.666 26.4463 154.107 26.3162 154.587 26.3162C155.066 26.3162 155.507 26.4333 155.896 26.6806C156.284 26.9279 156.595 27.2662 156.816 27.7087C157.036 28.1512 157.14 28.6588 157.127 29.2314C157.127 29.778 157.036 30.2595 156.816 30.689C156.595 31.1185 156.297 31.4699 155.909 31.7172C155.533 31.9644 155.079 32.0946 154.587 32.0946C154.094 32.0946 153.666 31.9644 153.277 31.7172ZM157.658 34.2289C158.553 33.7344 159.265 33.0576 159.771 32.1857C160.276 31.3137 160.536 30.3246 160.536 29.2314C160.536 28.1382 160.276 27.097 159.771 26.2251C159.253 25.3531 158.553 24.6764 157.658 24.1818C156.764 23.6873 155.74 23.44 154.587 23.44C153.433 23.44 152.422 23.6873 151.528 24.1818C150.62 24.6764 149.921 25.3531 149.402 26.2251C148.884 27.097 148.637 28.0992 148.637 29.2314C148.637 30.3637 148.897 31.3137 149.402 32.1857C149.908 33.0576 150.62 33.7344 151.528 34.2289C152.435 34.7235 153.446 34.9707 154.587 34.9707C155.727 34.9707 156.764 34.7235 157.658 34.2289ZM146.304 20.9933C146.654 20.6679 146.836 20.2515 146.836 19.7439C146.836 19.1843 146.654 18.7548 146.304 18.4555C145.954 18.1562 145.475 18 144.853 18C144.231 18 143.738 18.1562 143.375 18.4815C143.012 18.8069 142.831 19.2234 142.831 19.7309C142.831 20.2905 143.012 20.72 143.362 21.0193C143.712 21.3187 144.218 21.4748 144.853 21.4748C145.488 21.4748 145.941 21.3187 146.304 20.9933ZM146.525 23.6613H143.168V34.7625H146.525V23.6613ZM141.418 23.6613H133.978V26.6155H141.418V23.6613ZM139.292 20.8632H135.935V34.7625H139.292V20.8632ZM127.9 34.6584C128.379 34.4502 128.82 34.1639 129.235 33.7995C129.649 33.4351 129.999 33.0186 130.284 32.5501L129.701 31.0404C129.546 31.3267 129.338 31.587 129.092 31.8083C128.833 32.0295 128.548 32.1987 128.211 32.3158C127.887 32.4329 127.537 32.498 127.187 32.498C126.94 32.498 126.72 32.459 126.526 32.3679C126.344 32.2768 126.189 32.1596 126.072 32.0165C125.955 31.8603 125.904 31.6781 125.904 31.4699C125.904 31.2747 125.942 31.1055 126.02 30.9623C126.098 30.8192 126.215 30.702 126.357 30.5979C126.513 30.4938 126.694 30.4157 126.915 30.3637C127.135 30.3116 127.394 30.2856 127.679 30.2856H130.764L130.958 28.1772H127.601C126.785 28.1772 126.059 28.2553 125.45 28.3985C124.828 28.5416 124.322 28.7629 123.908 29.0492C123.493 29.3355 123.195 29.6999 122.987 30.1294C122.78 30.5589 122.676 31.0664 122.676 31.6391C122.676 32.3028 122.845 32.8884 123.169 33.383C123.493 33.8775 123.933 34.268 124.504 34.5413C125.061 34.8146 125.696 34.9577 126.383 34.9577C126.915 34.9577 127.407 34.8536 127.887 34.6454M132.488 34.7625V27.3053C132.488 26.4203 132.306 25.7045 131.93 25.1319C131.555 24.5592 131.023 24.1298 130.349 23.8565C129.675 23.5832 128.859 23.44 127.938 23.44C126.927 23.44 125.981 23.6352 125.126 24.0257C124.27 24.4161 123.506 24.9497 122.832 25.6394L124.828 27.5786C125.217 27.1231 125.618 26.7847 126.046 26.5895C126.474 26.3943 126.953 26.2902 127.498 26.2902C128.042 26.2902 128.483 26.4333 128.794 26.6936C129.105 26.9669 129.26 27.3834 129.26 27.956V34.7755H132.488V34.7625ZM110.441 34.7625V29.9472C110.441 29.5307 110.441 29.1533 110.415 28.8019C110.402 28.4636 110.376 28.0861 110.35 27.6957C110.324 27.3053 110.285 26.8237 110.221 26.2641C110.169 25.7045 110.091 25.0017 109.987 24.1558L108.963 24.0126L116.921 34.7625H120.149V20.1213H116.688V23.6092C116.688 24.5723 116.688 25.4182 116.714 26.16C116.74 26.9018 116.779 27.6046 116.844 28.2814C116.909 28.9581 116.999 29.6869 117.09 30.4678L117.777 30.5459L110.117 20.1083H106.928V34.7495H110.441V34.7625Z" fill="#1a1a1a"/>
  </g>
  <g clip-path="url(#clip1_553_5488)">
    <path d="M71.7197 47.1234L71.6063 47.3924L71.4646 48.0155L71.5213 50.5786L70.997 51.5415L72.6124 57.758L68.8432 60.1654L59.5762 66.0704C59.4204 66.1695 59.2645 66.2828 59.1086 66.3819C58.9386 66.481 58.7827 66.5943 58.6127 66.6934L49.374 72.5701L45.5765 74.9916L40.6455 70.9275L39.5261 70.9983L37.0889 69.7946L36.7063 69.7097L36.3379 69.6814L36.2387 69.5964L29.4656 68.0954L27.7652 65.4331V65.3907L27.5527 65.065H27.5243L20.8504 54.5719L20.4253 53.8922L18.4982 50.8476L20.0002 44.0646L19.9719 43.9372L20.1136 43.5973L20.1986 43.2008L20.1419 40.5103L21.2471 38.4853L21.6297 36.7436L21.1338 32.0281L22.9192 30.881L24.6054 29.8048L32.0303 25.0751C32.2003 24.9619 32.3845 24.8344 32.5687 24.7211C32.7388 24.6078 32.9088 24.5087 33.093 24.3954L44.0321 17.4284L48.0988 19.864L49.8841 20.2605L52.1371 20.1189L54.5035 21.2801L54.9994 21.3934H55.3537L55.4528 21.4925L62.2401 22.9935L73.2358 40.2413L71.7197 47.0526L71.748 47.1517L71.7197 47.1234ZM89.8427 34.6478L84.1323 29.5924L82.7012 27.1143L81.8227 23.5175L78.8187 20.388L78.4786 19.7932L78.2661 19.2551L78.0961 19.1418L72.5132 9.47005L66.9161 7.96902L65.6975 7.62916H65.655L56.6431 5.20768L46.3701 2.46051L45.6899 2.27642H45.6757L40.773 0.959473L31.1234 6.52463H30.8967L30.4008 6.93529L29.834 7.26098L25.6964 8.46464L24.4495 9.75327L14.1906 10.2914L10.8607 22.7386L7.7009 34.5487C7.64422 34.7611 7.58754 34.9593 7.53086 35.1717C7.47418 35.37 7.4175 35.5824 7.37499 35.7806L4.20098 47.6048L0.871094 60.0379L9.50045 65.6314L9.92554 67.3873L12.8587 70.446L13.2271 71.0833L13.4396 71.6497L13.6097 71.763L19.1925 81.4347L50.961 89.9453L60.639 84.366H60.8232L61.2483 84.012L61.9709 83.6013L66.0518 82.4118L68.5598 79.7921L71.1245 78.3194L78.5636 76.8042L79.4422 73.5189L81.3267 66.4952L83.9056 56.8659C84.019 56.4836 84.1323 56.1012 84.2315 55.7189C84.3307 55.3224 84.4441 54.9117 84.5291 54.5152L85.7194 50.0405L88.9642 37.9331L89.8427 34.6336V34.6478Z" fill="#2897FF"/>
  </g>
</svg>
